# xmcd
#
# Track frame offsets:
#	150
#	19263
#	38848
#	69902
#	88265
#	104137
#	118632
#	143807
#
# Disc length: 2136 seconds
#
# Revision: 1
# Processed by: cddbd v1.5.1PL2 Copyright (c) Steve Scherf et al.
# Submitted via: audiograbber 1.83.01
#
DISCID=6e085608
DTITLE=Rock Bottom Blues - Rock Bottom Blues
DYEAR=1900
DGENRE=Blues
TTITLE0=Standin' Dry
TTITLE1=4th Street Blues
TTITLE2=Sourmash
TTITLE3=Love Sucks
TTITLE4=Valley of the Moon
TTITLE5=Blues Genes
TTITLE6=Empty Pockets
TTITLE7=Soul Search
EXTD=
EXTT0=
EXTT1=
EXTT2=
EXTT3=
EXTT4=
EXTT5=
EXTT6=
EXTT7=
PLAYORDER=
